# xmcd
# 
# Track frame offsets:
#     150
#     11962
#     23027
#     37408
#     47373
#     59030
#     71128
#     84136
#     96501
#     110615
#     123258
#     140334
#     153583
#     167349
#     178814
#     191381
#     203392
#     216186
#     229999
#     243397
#     253579
#     267656
#     280467
#     292317
#     304289
# 
# Disc length: 4222
# 
# Revision: 0
# Processed by: cddbd v1.5.2PL0 Copyright (c) Steve Scherf et al.
# Submitted via: fre:ac v1.0.27
# 
DISCID=80107c19
DTITLE=Various Artist - Hot Hundred Blues - Disc 3
DYEAR=2014
DGENRE=Blues
TTITLE0=Jimmy Reed - Bright Lights, Big City
TTITLE1=Alexis Korner - Easy Rider
TTITLE2=John Lee Hooker - I'm So Worried Baby
TTITLE3=Howlin' Wolf - Do The Do
TTITLE4=Robert Johnson - If I Had Possession Over Judgement Day
TTITLE5=Muddy Waters - Howling Wolf
TTITLE6=Elmore James - Baby What's Wrong?
TTITLE7=B. B. King - Highway Bound
TTITLE8=Lightnin' Hopkins - That Mean Old Twister
TTITLE9=Ray Charles - I'm Just A Lonely Boy
TTITLE10=Alexis Korner - I Got My Brand On You
TTITLE11=Bessie Smith - Baby Won't You Please Come Home
TTITLE12=LaVern Baker - Soul On Fire
TTITLE13=John Lee Hooker - Little Wheel
TTITLE14=Jimmy Reed - I Found My Baby
TTITLE15=Elmore James - Blues Before Sunrise
TTITLE16=B. B. King - Mistreated Woman
TTITLE17=Lightnin' Hopkins - Traveller's Blues
TTITLE18=Alexis Korner - Spooky But Nice
TTITLE19=Muddy Waters - Mean Red Spider
TTITLE20=Bessie Smith - Young Woman's Blues
TTITLE21=Alexis Korner - Rain Is Such A Lonesome Sound
TTITLE22=John Lee Hooker - Let Your Daddy Ride
TTITLE23=Robert Johnson - Last Fair Deal Gone Down
TTITLE24=Howlin' Wolf - Spoonful
EXTD=
EXTT0=
EXTT1=
EXTT2=
EXTT3=
EXTT4=
EXTT5=
EXTT6=
EXTT7=
EXTT8=
EXTT9=
EXTT10=
EXTT11=
EXTT12=
EXTT13=
EXTT14=
EXTT15=
EXTT16=
EXTT17=
EXTT18=
EXTT19=
EXTT20=
EXTT21=
EXTT22=
EXTT23=
EXTT24=
PLAYORDER=
